<svg width="17" height="19" viewBox="0 0 17 19" fill="none" xmlns="http://www.w3.org/2000/svg">
<path d="M1.75012 16.875V15.125C1.75012 14.1967 2.11887 13.3065 2.77525 12.6501C3.43163 11.9937 4.32186 11.625 5.25012 11.625H8.75012M13.1251 17.75V12.5M13.1251 12.5L15.7501 15.125M13.1251 12.5L10.5001 15.125M3.50012 4.625C3.50012 5.55326 3.86887 6.4435 4.52525 7.09987C5.18163 7.75625 6.07186 8.125 7.00012 8.125C7.92838 8.125 8.81862 7.75625 9.475 7.09987C10.1314 6.4435 10.5001 5.55326 10.5001 4.625C10.5001 3.69674 10.1314 2.8065 9.475 2.15013C8.81862 1.49375 7.92838 1.125 7.00012 1.125C6.07186 1.125 5.18163 1.49375 4.52525 2.15013C3.86887 2.8065 3.50012 3.69674 3.50012 4.625Z" stroke="#3182CE" stroke-width="2" stroke-linecap="round" stroke-linejoin="round"/>
</svg>
