<svg width="15" height="17" viewBox="0 0 15 17" fill="none" xmlns="http://www.w3.org/2000/svg">
<path d="M9.77356 10.1762C9.67211 10.1426 9.03081 9.84976 9.43154 8.61588H9.4258C10.4704 7.52613 11.2686 5.77257 11.2686 4.04617C11.2686 1.3916 9.52598 0 7.50064 0C5.47402 0 3.74093 1.39095 3.74093 4.04617C3.74093 5.77968 4.53473 7.54035 5.58569 8.62751C5.99535 9.71597 5.26281 10.1199 5.10966 10.1762C2.98861 10.9537 0.5 12.3699 0.5 13.768V14.2921C0.5 16.1969 4.14613 16.63 7.52042 16.63C10.8998 16.63 14.5 16.1969 14.5 14.2921V13.768C14.5 12.3279 11.9993 10.9227 9.77356 10.1762ZM6.25378 15.8053C6.25378 14.1577 7.28943 11.9336 7.28943 11.9336L6.57284 11.3642C6.57284 10.8199 7.5 10.2505 7.5 10.2505C7.5 10.2505 8.42461 10.829 8.42461 11.3642L7.71057 11.9336C7.71057 11.9336 8.74622 14.1493 8.74622 15.8234C8.74622 16.0858 6.25378 16.025 6.25378 15.8053Z" fill="#1D4ED8"/>
</svg>
