<svg width="15" height="18" viewBox="0 0 15 18" fill="none" xmlns="http://www.w3.org/2000/svg">
<path d="M5.57449 2.09375C5.04198 2.0937 4.71762 2.09368 4.43782 2.1439C2.90008 2.41993 1.69405 3.78676 1.4505 5.52953C1.40618 5.84663 1.40621 6.21425 1.40625 6.81776L1.40625 11.1823C1.40621 11.7858 1.40618 12.1534 1.4505 12.4705C1.69405 14.2133 2.90008 15.5801 4.43782 15.8561C4.71762 15.9063 5.04199 15.9063 5.5745 15.9063L6.25 15.9063C7.05849 15.9063 7.80585 15.603 8.40653 15.0917C8.61352 14.9155 8.65528 14.5825 8.4998 14.3479C8.34432 14.1133 8.05048 14.066 7.84348 14.2422C7.39958 14.62 6.84852 14.8438 6.25 14.8438H5.625C5.02646 14.8438 4.78177 14.8421 4.58448 14.8067C3.44789 14.6027 2.55648 13.5924 2.37646 12.3043C2.34521 12.0807 2.34376 11.8034 2.34376 11.125L2.34376 6.87501C2.34376 6.19666 2.34521 5.91934 2.37646 5.69574C2.55648 4.4076 3.44789 3.39734 4.58448 3.19332C4.78177 3.1579 5.02646 3.15626 5.625 3.15626H6.25C6.84852 3.15626 7.39958 3.37997 7.84348 3.75785C8.05048 3.93406 8.34432 3.88673 8.4998 3.65214C8.65528 3.41754 8.61352 3.08452 8.40653 2.90831C7.80585 2.39697 7.0585 2.09376 6.25 2.09376L5.57449 2.09375Z" fill="white"/>
<path d="M10.9162 5.7504C10.7134 5.56811 10.4185 5.60671 10.2577 5.83661C10.0969 6.06651 10.1309 6.40066 10.3338 6.58295L11.4356 7.57309C11.8756 7.96849 12.1769 8.24021 12.3816 8.46876L4.37501 8.46876C4.11612 8.46876 3.90626 8.7066 3.90626 9.00001C3.90626 9.29341 4.11612 9.53126 4.37501 9.53126L12.3816 9.53126C12.1769 9.75981 11.8756 10.0315 11.4356 10.4269L10.3338 11.4171C10.1309 11.5994 10.0969 11.9335 10.2577 12.1634C10.4185 12.3933 10.7134 12.4319 10.9162 12.2496L12.0405 11.2394C12.4608 10.8617 12.8076 10.55 13.0547 10.2711C13.3082 9.98486 13.5184 9.66715 13.5755 9.26115C13.5876 9.17466 13.5938 9.0874 13.5938 9.00001C13.5938 8.91261 13.5876 8.82536 13.5755 8.73886C13.5184 8.33287 13.3082 8.01516 13.0547 7.72891C12.8076 7.44997 12.4608 7.13833 12.0405 6.76066L10.9162 5.7504Z" fill="white"/>
</svg>
