<svg width="15" height="17" viewBox="0 0 15 17" fill="none" xmlns="http://www.w3.org/2000/svg">
<path d="M5.57449 1.59375C5.04198 1.5937 4.71762 1.59368 4.43782 1.6439C2.90008 1.91993 1.69405 3.28676 1.4505 5.02953C1.40618 5.34663 1.40621 5.71425 1.40625 6.31776L1.40625 10.6823C1.40621 11.2858 1.40618 11.6534 1.4505 11.9705C1.69405 13.7133 2.90008 15.0801 4.43782 15.3561C4.71762 15.4063 5.04199 15.4063 5.5745 15.4063L6.25 15.4063C7.05849 15.4063 7.80585 15.103 8.40653 14.5917C8.61352 14.4155 8.65528 14.0825 8.4998 13.8479C8.34432 13.6133 8.05048 13.566 7.84348 13.7422C7.39958 14.12 6.84852 14.3438 6.25 14.3438H5.625C5.02646 14.3438 4.78177 14.3421 4.58448 14.3067C3.44789 14.1027 2.55648 13.0924 2.37646 11.8043C2.34521 11.5807 2.34376 11.3034 2.34376 10.625L2.34376 6.37501C2.34376 5.69666 2.34521 5.41934 2.37646 5.19574C2.55648 3.9076 3.44789 2.89734 4.58448 2.69332C4.78177 2.6579 5.02646 2.65626 5.625 2.65626H6.25C6.84852 2.65626 7.39958 2.87997 7.84348 3.25785C8.05048 3.43406 8.34432 3.38673 8.4998 3.15214C8.65528 2.91754 8.61352 2.58452 8.40653 2.40831C7.80585 1.89697 7.0585 1.59376 6.25 1.59376L5.57449 1.59375Z" fill="#1D4ED8"/>
<path d="M10.9162 5.2504C10.7134 5.06811 10.4185 5.10671 10.2577 5.33661C10.0969 5.56651 10.1309 5.90066 10.3338 6.08295L11.4356 7.07309C11.8756 7.46849 12.1769 7.74021 12.3816 7.96876L4.37501 7.96876C4.11612 7.96876 3.90626 8.2066 3.90626 8.50001C3.90626 8.79341 4.11612 9.03126 4.37501 9.03126L12.3816 9.03126C12.1769 9.25981 11.8756 9.53152 11.4356 9.92692L10.3338 10.9171C10.1309 11.0994 10.0969 11.4335 10.2577 11.6634C10.4185 11.8933 10.7134 11.9319 10.9162 11.7496L12.0405 10.7394C12.4608 10.3617 12.8076 10.05 13.0547 9.7711C13.3082 9.48486 13.5184 9.16715 13.5755 8.76115C13.5876 8.67466 13.5938 8.5874 13.5938 8.50001C13.5938 8.41261 13.5876 8.32536 13.5755 8.23886C13.5184 7.83287 13.3082 7.51516 13.0547 7.22891C12.8076 6.94997 12.4608 6.63833 12.0405 6.26066L10.9162 5.2504Z" fill="#1D4ED8"/>
</svg>
