<svg width="15" height="15" viewBox="0 0 15 15" fill="none" xmlns="http://www.w3.org/2000/svg">
<path d="M12.5392 6.5625H8.43762C8.06466 6.5625 7.70698 6.41434 7.44325 6.15062C7.17953 5.88689 7.03137 5.52921 7.03137 5.15625V1.05469C7.03137 1.02361 7.01903 0.9938 6.99705 0.971823C6.97507 0.949847 6.94526 0.9375 6.91418 0.9375H4.21887C3.72159 0.9375 3.24468 1.13504 2.89305 1.48667C2.54142 1.83831 2.34387 2.31522 2.34387 2.8125V12.1875C2.34387 12.6848 2.54142 13.1617 2.89305 13.5133C3.24468 13.865 3.72159 14.0625 4.21887 14.0625H10.7814C11.2787 14.0625 11.7556 13.865 12.1072 13.5133C12.4588 13.1617 12.6564 12.6848 12.6564 12.1875V6.67969C12.6564 6.64861 12.644 6.6188 12.622 6.59682C12.6001 6.57484 12.5703 6.5625 12.5392 6.5625Z" fill="#3182CE"/>
<path d="M12.282 5.52612L8.06877 1.31294C8.06058 1.30479 8.05016 1.29925 8.03883 1.29701C8.0275 1.29477 8.01575 1.29593 8.00508 1.30034C7.9944 1.30476 7.98527 1.31223 7.97882 1.32182C7.97238 1.33141 7.96892 1.34269 7.96887 1.35425V5.15727C7.96887 5.28159 8.01826 5.40082 8.10617 5.48873C8.19407 5.57664 8.3133 5.62602 8.43762 5.62602H12.2406C12.2522 5.62598 12.2635 5.62251 12.2731 5.61607C12.2827 5.60963 12.2901 5.6005 12.2946 5.58982C12.299 5.57914 12.3001 5.5674 12.2979 5.55607C12.2956 5.54473 12.2901 5.53431 12.282 5.52612Z" fill="#3182CE"/>
</svg>
