<svg width="16" height="6" viewBox="0 0 16 6" fill="none" xmlns="http://www.w3.org/2000/svg">
<path d="M0.125 4.28076C0.125 4.68687 0.332421 5.07635 0.701633 5.36352C1.07085 5.65068 1.5716 5.81201 2.09375 5.81201H13.9062C14.4284 5.81201 14.9291 5.65068 15.2984 5.36352C15.6676 5.07635 15.875 4.68687 15.875 4.28076V0.0698242H0.125V4.28076ZM2.44531 2.20264C2.44531 1.98508 2.55643 1.77643 2.75422 1.62259C2.95201 1.46875 3.22028 1.38232 3.5 1.38232H5.1875C5.46722 1.38232 5.73548 1.46875 5.93328 1.62259C6.13107 1.77643 6.24219 1.98508 6.24219 2.20264V2.74951C6.24219 2.96707 6.13107 3.17572 5.93328 3.32956C5.73548 3.4834 5.46722 3.56982 5.1875 3.56982H3.5C3.22028 3.56982 2.95201 3.4834 2.75422 3.32956C2.55643 3.17572 2.44531 2.96707 2.44531 2.74951V2.20264Z" fill="#1D4ED8"/>
</svg>
