<svg width="18" height="14" viewBox="0 0 18 14" fill="none" xmlns="http://www.w3.org/2000/svg">
<path d="M1.12494 10.2808C1.12494 10.6869 1.33236 11.0764 1.70157 11.3635C2.07078 11.6507 2.57154 11.812 3.09369 11.812H14.9062C15.4283 11.812 15.9291 11.6507 16.2983 11.3635C16.6675 11.0764 16.8749 10.6869 16.8749 10.2808V6.06982H1.12494V10.2808ZM3.44525 8.20264C3.44525 7.98508 3.55637 7.77643 3.75416 7.62259C3.95195 7.46875 4.22022 7.38232 4.49994 7.38232H6.18744C6.46716 7.38232 6.73542 7.46875 6.93321 7.62259C7.13101 7.77643 7.24212 7.98508 7.24212 8.20264V8.74951C7.24212 8.96707 7.13101 9.17572 6.93321 9.32956C6.73542 9.4834 6.46716 9.56982 6.18744 9.56982H4.49994C4.22022 9.56982 3.95195 9.4834 3.75416 9.32956C3.55637 9.17572 3.44525 8.96707 3.44525 8.74951V8.20264Z" fill="#3182CE"/>
<path d="M14.9062 2.18677H3.09369C2.57154 2.18677 2.07078 2.3481 1.70157 2.63526C1.33236 2.92243 1.12494 3.3119 1.12494 3.71802V4.42895H16.8749V3.71802C16.8749 3.3119 16.6675 2.92243 16.2983 2.63526C15.9291 2.3481 15.4283 2.18677 14.9062 2.18677V2.18677Z" fill="#3182CE"/>
</svg>
