<svg width="14" height="18" viewBox="0 0 14 18" fill="none" xmlns="http://www.w3.org/2000/svg">
<path d="M9.27357 10.6762C9.17211 10.6426 8.53081 10.3498 8.93154 9.11588H8.9258C9.97038 8.02613 10.7686 6.27257 10.7686 4.54617C10.7686 1.8916 9.02598 0.5 7.00064 0.5C4.97402 0.5 3.24093 1.89095 3.24093 4.54617C3.24093 6.27968 4.03473 8.04035 5.08569 9.12751C5.49535 10.216 4.76281 10.6199 4.60966 10.6762C2.48861 11.4537 0 12.8699 0 14.268V14.7921C0 16.6969 3.64613 17.13 7.02042 17.13C10.3998 17.13 14 16.6969 14 14.7921V14.268C14 12.8279 11.4993 11.4227 9.27357 10.6762ZM5.75378 16.3053C5.75378 14.6577 6.78943 12.4336 6.78943 12.4336L6.07284 11.8642C6.07284 11.3199 7 10.7505 7 10.7505C7 10.7505 7.92461 11.329 7.92461 11.8642L7.21058 12.4336C7.21058 12.4336 8.24622 14.6493 8.24622 16.3234C8.24622 16.5858 5.75378 16.525 5.75378 16.3053Z" fill="white"/>
</svg>
