<svg width="14" height="14" viewBox="0 0 14 14" fill="none" xmlns="http://www.w3.org/2000/svg">
<path d="M13.5 11.3333V12H0.5V11.3333L1.94444 10V6C1.94444 3.93333 3.41056 2.11333 5.55556 1.52667V1.33333C5.55556 0.979711 5.70774 0.640573 5.97862 0.390524C6.24951 0.140476 6.61691 0 7 0C7.38309 0 7.75049 0.140476 8.02138 0.390524C8.29226 0.640573 8.44444 0.979711 8.44444 1.33333V1.52667C10.5894 2.11333 12.0556 3.93333 12.0556 6V10L13.5 11.3333ZM8.44444 12.6667C8.44444 13.0203 8.29226 13.3594 8.02138 13.6095C7.75049 13.8595 7.38309 14 7 14C6.61691 14 6.24951 13.8595 5.97862 13.6095C5.70774 13.3594 5.55556 13.0203 5.55556 12.6667" fill="#1D4ED8"/>
</svg>
