<svg width="13" height="15" viewBox="0 0 13 15" fill="none" xmlns="http://www.w3.org/2000/svg">
<path d="M13 11.8333V12.5H0V11.8333L1.44444 10.5V6.5C1.44444 4.43333 2.91056 2.61333 5.05556 2.02667V1.83333C5.05556 1.47971 5.20774 1.14057 5.47862 0.890524C5.74951 0.640476 6.11691 0.5 6.5 0.5C6.88309 0.5 7.25049 0.640476 7.52138 0.890524C7.79226 1.14057 7.94444 1.47971 7.94444 1.83333V2.02667C10.0894 2.61333 11.5556 4.43333 11.5556 6.5V10.5L13 11.8333ZM7.94444 13.1667C7.94444 13.5203 7.79226 13.8594 7.52138 14.1095C7.25049 14.3595 6.88309 14.5 6.5 14.5C6.11691 14.5 5.74951 14.3595 5.47862 14.1095C5.20774 13.8594 5.05556 13.5203 5.05556 13.1667" fill="#3182CE"/>
</svg>
